<svg xmlns="http://www.w3.org/2000/svg" width="125.238" height="186.833" viewBox="0 0 125.238 186.833"><path d="M100.191,1.734,94.115,162.013s-2.827,18.592-21.862,19.479c-15.351.714-24.9-6.225-30.06-24.446l-6.755.314c5.327,21.9,19.322,31.715,37.743,30.857s26.8-19.093,27.631-27.747L100.191,1.734l-6.754.315Z" transform="translate(-35.438 -1.734)"/><path d="M97.258,63.553" transform="translate(-35.438 -1.734)"/><path d="M154.6,151.677l.167-.092c-.662-8.064-.829-15.413-.829-24.824V51.484h6.536L160.676,162h-6.412L110,106S78.311,67.616,75.522,61.074l-.254.091c.415,7.616.575,14.877.575,24.916L74.743,162H68.115l1-110.516h6.408S111.44,95,115,99,154.6,151.677,154.6,151.677Z" transform="translate(-35.438 -1.734)"/><path d="M135.154,2.033,81.642,179.221c6.851,6.777,15.95,9.786,26.5,9.295,18.421-.858,26.8-19.093,27.631-27.747L135.154,2H128.4l.678,160.311s-2.827,18.593-21.862,19.479c-8.4.391-15.216-1.79-20.23-6.3A13.663,13.663,0,0,1,81.642,179.221Z" transform="translate(-35.438 -1.734)"/><path d="M93.827,62.216,93.251,1.809l7.814-.074,17.07,30.393A175.819,175.819,0,0,1,128.281,51.66l.167-.093C128,44,128,37,128,27l.139-25h7.014l.227,60H128.7L110.322,31.405a171.836,171.836,0,0,1-9.56-19.068l-.254.094c.489,7.611-.281,13.871-.186,23.909L100.3,62.152Z" transform="translate(-35.438 -1.734)" style="fill:#720f0f"/></svg>