<svg id="Layer_1" data-name="Layer 1" xmlns="http://www.w3.org/2000/svg" viewBox="0 0 463 287"><defs><style>.cls-1{fill:#a2ffbc;}.cls-1,.cls-2{stroke:#000;stroke-miterlimit:10;}.cls-2{fill:#b9f4ff;}</style></defs><polygon class="cls-1" points="339 1 183.5 0.5 223.78 286.5 286.02 286.5 302.39 286.5 302 227 369 286.5 462.5 286.5 462.5 0.5 406.08 0.5 406.08 59 339 1"/><polygon class="cls-2" points="309 0.5 309.17 0.5 121.5 0.5 121.5 128.5 0.5 128.5 0.5 286.5 223.98 286.5 309 0.5"/><polygon class="cls-1" points="84.5 149.35 94.86 178.49 122.79 165.21 109.51 193.14 138.65 203.5 109.51 213.86 122.79 241.79 94.86 228.51 84.5 257.65 74.14 228.51 46.21 241.79 59.49 213.86 30.35 203.5 59.49 193.14 46.21 165.21 74.14 178.49 84.5 149.35"/></svg>