<svg id="f925ee91-7240-4be1-bf46-791bf6844e0c" data-name="Layer 1" xmlns="http://www.w3.org/2000/svg" xmlns:xlink="http://www.w3.org/1999/xlink" width="459.927" height="252.989" viewBox="0 0 459.927 252.989"><defs><style>.ad308037-4f8d-4713-9919-c0d23bbbfd40{font-size:36px;font-family:LouisGeorgeCafeLight, Louis George Café Light;}.a228a4bb-d14a-4470-ac94-69e45eab863d,.ad308037-4f8d-4713-9919-c0d23bbbfd40{fill:#f9eeaf;}.ef85e70b-d7a4-4e81-b487-0a2924db76ec{fill:#720f0f;}.f14ea438-d824-42d1-abf1-e18b1325a415{fill:url(#a8d2a34a-bdde-4b36-ab2c-9b98966266c1);}</style><linearGradient id="a8d2a34a-bdde-4b36-ab2c-9b98966266c1" x1="102.424" y1="214.861" x2="102.424" y2="85.595" gradientUnits="userSpaceOnUse"><stop offset="0" stop-color="#f9eeaf"/><stop offset="1" stop-color="#720f0f"/></linearGradient></defs><text class="ad308037-4f8d-4713-9919-c0d23bbbfd40" transform="translate(134.57 109.721) scale(1.064 1)">WEBENTWICKLUNG</text><path class="a228a4bb-d14a-4470-ac94-69e45eab863d" d="M95.2,49.945l-.032,35.007-9.341.088L85.473,50.5l.766,169.888s-4.079,25.216-31.545,26.418c-22.15.969-35.935-8.443-43.375-33.155l-9.746.426c7.687,29.71,27.88,43.014,54.461,41.851S94.708,230.034,95.9,218.3L95.188,46.645C95.184,47.716,95.184,48.806,95.2,49.945Z" transform="translate(-1.573 -3.011)"/><polygon points="93.434 0 93.106 0.014 93.434 0.011 93.434 0"/><path class="ef85e70b-d7a4-4e81-b487-0a2924db76ec" d="M145.454,3.371H135.333l-.2,33.907c0,13.562,0,23.056.646,33.319l-.241.126A233.738,233.738,0,0,0,120.9,44.232L96.267,3.011l-1.26.011-.328,0-9.687.087.481,47.39.35,34.538,9.341-.088L95.2,49.945c-.012-1.139-.012-2.229-.008-3.3.045-11.735.922-19.667.276-29.127l.367-.127a227.824,227.824,0,0,0,13.793,25.862l26.519,41.494h9.638Z" transform="translate(-1.573 -3.011)"/><path class="f14ea438-d824-42d1-abf1-e18b1325a415" d="M107.351,90.112V90.6l-.007.006H100.37a3.156,3.156,0,0,1-2.015-.686,2.4,2.4,0,0,1-.294-.289,2.018,2.018,0,0,1-.462-.868,1.6,1.6,0,0,1-.047-.352V87.8a1.806,1.806,0,0,1,.274-.906,2.745,2.745,0,0,1,1.426-1.113A3.255,3.255,0,0,1,100.3,85.6h.556l.006.007v.484l-.006.006h-.522a2.639,2.639,0,0,0-1.406.409,1.836,1.836,0,0,0-.77.906,1.312,1.312,0,0,0-.073.415v.56a1.41,1.41,0,0,0,.307.831,1.984,1.984,0,0,0,.268.289l.141.107a2.672,2.672,0,0,0,.368.226,2.434,2.434,0,0,0,.428.164,2.831,2.831,0,0,0,.824.107h6.927Z" transform="translate(-1.573 -3.011)"/><path class="f14ea438-d824-42d1-abf1-e18b1325a415" d="M103.91,95.613v.032a2.616,2.616,0,0,1-1.224,2.158l-.141.081v.007h1.285l.02.019v.453l-.02.012h-6.2l-.02-.012V97.91l.02-.019h1.285v-.007a2.794,2.794,0,0,1-1.225-1.446,2.474,2.474,0,0,1-.14-.825A2.619,2.619,0,0,1,98.73,93.48a3.506,3.506,0,0,1,1.988-.6h.027a3.392,3.392,0,0,1,2.3.856A2.543,2.543,0,0,1,103.91,95.613Zm-3.172-2.252a2.827,2.827,0,0,0-2.182.956,2.016,2.016,0,0,0,.355,2.957,3,3,0,0,0,3.674-.025,2.1,2.1,0,0,0,.81-1.629,2.176,2.176,0,0,0-1.058-1.806A3.062,3.062,0,0,0,100.738,93.361Z" transform="translate(-1.573 -3.011)"/><path class="f14ea438-d824-42d1-abf1-e18b1325a415" d="M107.351,100.932v.459l-.02.019h-6.6l3.186,3.158v.717H103.9l-2.691-2.661h-.007l-3.634,2.7h-.02v-.635q.033-.045,1.225-.906,1.86-1.385,2.068-1.517v-.012l-.857-.843H97.572l-.02-.019v-.459l.02-.019h9.759Z" transform="translate(-1.573 -3.011)"/><path class="f14ea438-d824-42d1-abf1-e18b1325a415" d="M103.91,109.5v.032a2.6,2.6,0,0,1-1.151,2.108,3.5,3.5,0,0,1-1.981.623h-.094a3.379,3.379,0,0,1-2.282-.875,2.532,2.532,0,0,1-.85-1.888,2.616,2.616,0,0,1,1.178-2.132,3.5,3.5,0,0,1,1.988-.6h.027a3.387,3.387,0,0,1,2.3.856A2.539,2.539,0,0,1,103.91,109.5Zm-3.172-2.252a2.824,2.824,0,0,0-2.182.957,2.071,2.071,0,0,0-.489,1.308,2.1,2.1,0,0,0,.844,1.649,3,3,0,0,0,3.674-.026,2.1,2.1,0,0,0,.81-1.629,2.176,2.176,0,0,0-1.058-1.806A3.062,3.062,0,0,0,100.738,107.25Z" transform="translate(-1.573 -3.011)"/><path class="f14ea438-d824-42d1-abf1-e18b1325a415" d="M107.351,114.443v.46l-.02.018h-4.746v.007a2.842,2.842,0,0,1,1.245,1.459,2.529,2.529,0,0,1,.147.85,2.609,2.609,0,0,1-1.051,2.057,3.461,3.461,0,0,1-2.141.736h-.094a3.47,3.47,0,0,1-2.376-.931,2.619,2.619,0,0,1-.817-1.825V117.2a2.654,2.654,0,0,1,1.171-2.139l.222-.132v-.007H97.565l-.013-.018v-.46l.013-.019h9.766Zm-6.627.478a2.966,2.966,0,0,0-1.874.648,2.145,2.145,0,0,0-.823,1.668,2.172,2.172,0,0,0,1,1.78,3.022,3.022,0,0,0,1.721.516,2.876,2.876,0,0,0,2.208-.969,2.147,2.147,0,0,0,.5-1.34,2.173,2.173,0,0,0-.991-1.774A2.994,2.994,0,0,0,100.724,114.921Z" transform="translate(-1.573 -3.011)"/><path class="f14ea438-d824-42d1-abf1-e18b1325a415" d="M107.351,126.187v.761q-.081.063-.971.548L98.1,132.044v.006h9.23l.02.019v.459l-.02.019H97.572l-.02-.019v-.742a5.525,5.525,0,0,1,.642-.365L106.8,126.7v-.012h-9.23l-.02-.013v-.453c0-.029.009-.046.027-.05h9.752Z" transform="translate(-1.573 -3.011)"/><path class="f14ea438-d824-42d1-abf1-e18b1325a415" d="M103.91,137.563v.032a2.6,2.6,0,0,1-1.151,2.108,3.5,3.5,0,0,1-1.981.623h-.094a3.379,3.379,0,0,1-2.282-.875,2.532,2.532,0,0,1-.85-1.888,2.616,2.616,0,0,1,1.178-2.132,3.5,3.5,0,0,1,1.988-.6h.027a3.387,3.387,0,0,1,2.3.856A2.539,2.539,0,0,1,103.91,137.563Zm-3.172-2.251a2.824,2.824,0,0,0-2.182.956,2.071,2.071,0,0,0-.489,1.308,2.1,2.1,0,0,0,.844,1.649,3,3,0,0,0,3.674-.026,2.1,2.1,0,0,0,.81-1.629,2.176,2.176,0,0,0-1.058-1.806A3.061,3.061,0,0,0,100.738,135.312Z" transform="translate(-1.573 -3.011)"/><path class="f14ea438-d824-42d1-abf1-e18b1325a415" d="M103.91,144.65v.422a2.094,2.094,0,0,1-.93,1.843,2.259,2.259,0,0,1-1.218.321h-4.19l-.02-.019v-.459l.02-.013H101.7a1.491,1.491,0,0,0,1.593-1.051,2.374,2.374,0,0,0,.093-.7v-.27a1.587,1.587,0,0,0-.91-1.617,2.006,2.006,0,0,0-.769-.126h-4.13l-.02-.019v-.459l.02-.019H103.8l.02.019v.459l-.02.019h-.716A2.016,2.016,0,0,1,103.91,144.65Z" transform="translate(-1.573 -3.011)"/><path class="f14ea438-d824-42d1-abf1-e18b1325a415" d="M103.91,151.925v.422a2.094,2.094,0,0,1-.93,1.843,2.259,2.259,0,0,1-1.218.321h-4.19l-.02-.019v-.459l.02-.013H101.7a1.491,1.491,0,0,0,1.593-1.051,2.374,2.374,0,0,0,.093-.7V152a1.586,1.586,0,0,0-.91-1.616,2.006,2.006,0,0,0-.769-.126h-4.13l-.02-.019v-.459l.02-.019H103.8l.02.019v.459l-.02.019h-.716A2.016,2.016,0,0,1,103.91,151.925Z" transform="translate(-1.573 -3.011)"/><path class="f14ea438-d824-42d1-abf1-e18b1325a415" d="M103.9,159.225v.032a2.564,2.564,0,0,1-.978,1.975,3.478,3.478,0,0,1-2.208.768l-.014-.013v-5.008a2.825,2.825,0,0,0-2.035.831,2.077,2.077,0,0,0-.6,1.434,2.14,2.14,0,0,0,1,1.768,3.478,3.478,0,0,0,.609.315l.047.006a1.842,1.842,0,0,1-.181.459,3.85,3.85,0,0,1-.749-.358,2.545,2.545,0,0,1-.067-4.335,3.5,3.5,0,0,1,1.988-.6h.02a3.373,3.373,0,0,1,2.3.856A2.52,2.52,0,0,1,103.9,159.225Zm-2.684-2.208v4.448a2.93,2.93,0,0,0,.816-.252,2.381,2.381,0,0,0,1.225-1.283,1.911,1.911,0,0,0,.127-.7,2.118,2.118,0,0,0-.937-1.711A2.875,2.875,0,0,0,101.22,157.017Z" transform="translate(-1.573 -3.011)"/><path class="f14ea438-d824-42d1-abf1-e18b1325a415" d="M103.91,166.267v.421a2.1,2.1,0,0,1-.93,1.844,2.259,2.259,0,0,1-1.218.321h-4.19l-.02-.02v-.458l.02-.013H101.7a1.491,1.491,0,0,0,1.593-1.051,2.374,2.374,0,0,0,.093-.7v-.271a1.586,1.586,0,0,0-.91-1.616,2.006,2.006,0,0,0-.769-.126h-4.13l-.02-.019v-.459l.02-.019H103.8l.02.019v.459l-.02.019h-.716A2.015,2.015,0,0,1,103.91,166.267Z" transform="translate(-1.573 -3.011)"/><path class="f14ea438-d824-42d1-abf1-e18b1325a415" d="M103.91,173.542v.421a2.1,2.1,0,0,1-.937,1.85l-.114.057v.018a1.858,1.858,0,0,1,.911,1.07,2.553,2.553,0,0,1,.14.843v.415a2.1,2.1,0,0,1-.87,1.806,2.2,2.2,0,0,1-1.291.365H97.572l-.02-.019v-.459l.02-.019h4.1a1.534,1.534,0,0,0,1.553-.856,2.315,2.315,0,0,0,.16-.887v-.277a1.583,1.583,0,0,0-.943-1.629,2.061,2.061,0,0,0-.716-.114h-4.15l-.02-.019v-.459l.02-.012H101.7a1.491,1.491,0,0,0,1.593-1.051,2.374,2.374,0,0,0,.093-.7v-.271a1.589,1.589,0,0,0-.91-1.617,2.027,2.027,0,0,0-.769-.125h-4.13l-.02-.019v-.46l.02-.019H103.8l.02.019v.46l-.02.019h-.716A2.015,2.015,0,0,1,103.91,173.542Z" transform="translate(-1.573 -3.011)"/><path class="f14ea438-d824-42d1-abf1-e18b1325a415" d="M103.91,185.265v.031a2.616,2.616,0,0,1-1.224,2.158l-.141.082v.006h1.285l.02.019v.453l-.02.012h-6.2l-.02-.012v-.453l.02-.019h1.285v-.006a2.8,2.8,0,0,1-1.225-1.447,2.464,2.464,0,0,1-.14-.824,2.618,2.618,0,0,1,1.178-2.133,3.5,3.5,0,0,1,1.988-.6h.027a3.387,3.387,0,0,1,2.3.856A2.539,2.539,0,0,1,103.91,185.265Zm-3.172-2.253a2.824,2.824,0,0,0-2.182.957,2.071,2.071,0,0,0-.489,1.308,2.1,2.1,0,0,0,.844,1.649,3,3,0,0,0,3.674-.026,2.1,2.1,0,0,0,.81-1.629,2.176,2.176,0,0,0-1.058-1.806A3.071,3.071,0,0,0,100.738,183.012Z" transform="translate(-1.573 -3.011)"/><path class="f14ea438-d824-42d1-abf1-e18b1325a415" d="M103.91,192.9v.032a2.585,2.585,0,0,1-1.064,2.044l-.321.208a2.706,2.706,0,0,1-.268-.409,2.087,2.087,0,0,0,.08-3.674,3.062,3.062,0,0,0-1.6-.453,2.827,2.827,0,0,0-2.182.956,2.076,2.076,0,0,0-.489,1.309,2.184,2.184,0,0,0,1.111,1.843l.06.038a3.212,3.212,0,0,1-.28.4,2.846,2.846,0,0,1-1.279-1.491,2.658,2.658,0,0,1-.127-.806,2.563,2.563,0,0,1,.97-1.968,3.4,3.4,0,0,1,2.2-.768h.027a3.391,3.391,0,0,1,2.3.855A2.543,2.543,0,0,1,103.91,192.9Z" transform="translate(-1.573 -3.011)"/><path class="f14ea438-d824-42d1-abf1-e18b1325a415" d="M107.351,197.229v.459l-.02.019h-4.244a2.049,2.049,0,0,1,.83,1.705v.352a2.074,2.074,0,0,1-1.125,1.988,2.393,2.393,0,0,1-1.023.214h-4.2l-.02-.019v-.459l.02-.019H101.7a1.5,1.5,0,0,0,1.546-.906,2.255,2.255,0,0,0,.147-.868v-.22a1.606,1.606,0,0,0-.9-1.636,2.042,2.042,0,0,0-.777-.132H97.572l-.02-.019v-.459l.02-.019h9.759Z" transform="translate(-1.573 -3.011)"/><path class="f14ea438-d824-42d1-abf1-e18b1325a415" d="M103.9,206.681v.031a2.567,2.567,0,0,1-.978,1.976,3.483,3.483,0,0,1-2.208.767l-.014-.013v-5.007a2.824,2.824,0,0,0-2.035.83,2.079,2.079,0,0,0-.6,1.435,2.137,2.137,0,0,0,1,1.767,3.346,3.346,0,0,0,.609.315l.047.006a1.864,1.864,0,0,1-.181.46,3.8,3.8,0,0,1-.749-.359,2.545,2.545,0,0,1-.067-4.335,3.506,3.506,0,0,1,1.988-.6h.02a3.373,3.373,0,0,1,2.3.856A2.521,2.521,0,0,1,103.9,206.681Zm-2.684-2.208v4.447a2.953,2.953,0,0,0,.816-.251,2.383,2.383,0,0,0,1.225-1.284,1.9,1.9,0,0,0,.127-.7,2.117,2.117,0,0,0-.937-1.711A2.862,2.862,0,0,0,101.22,204.473Z" transform="translate(-1.573 -3.011)"/><path class="f14ea438-d824-42d1-abf1-e18b1325a415" d="M103.957,213.842a1.737,1.737,0,0,1-.294,1.019,3.837,3.837,0,0,1-.609-.126,1.782,1.782,0,0,0,.314-.943v-.051a1.86,1.86,0,0,0-.381-1.1,1.4,1.4,0,0,0-.469-.365,1.973,1.973,0,0,0-.89-.22H97.572l-.02-.018v-.46l.02-.019h6.238l.013.019v.46l-.013.018H103.1v.007a1.459,1.459,0,0,1,.294.276A2.209,2.209,0,0,1,103.957,213.842Z" transform="translate(-1.573 -3.011)"/></svg>