<?xml version="1.0" encoding="utf-8"?>
<!-- Generator: Adobe Illustrator 25.2.1, SVG Export Plug-In . SVG Version: 6.00 Build 0)  -->
<svg version="1.1" baseProfile="basic" id="Layer_1"
	 xmlns="http://www.w3.org/2000/svg" xmlns:xlink="http://www.w3.org/1999/xlink" x="0px" y="0px" viewBox="0 0 200 200"
	 xml:space="preserve">
<g>
	<path fill="none" d="M100.762,12.337l-0.254,0.094c0.447,6.975-0.16,12.823-0.191,21.476l0.495,126.564
		c-0.456,4.769-3.212,12.444-8.673,18.521c4.22,2.109,9.267,3.069,15.076,2.799c19.035-0.886,21.862-19.479,21.862-19.479
		l-0.424-100.39l-18.331-30.516C106.391,24.717,103.619,18.853,100.762,12.337z"/>
	<path d="M86.986,175.486c1.548,1.394,3.268,2.563,5.153,3.505c5.46-6.077,8.216-13.752,8.673-18.521l-0.495-126.564
		c-0.003,0.79-0.003,1.594,0.005,2.433L100.3,62.152l-6.473,0.064L93.584,36.75l0.531,125.263c0,0-2.827,18.593-21.862,19.479
		c-15.351,0.715-24.904-6.225-30.06-24.446c-3.07,0.143-3.684,0.172-6.754,0.314c5.327,21.905,19.322,31.715,37.743,30.857
		c5.5-0.256,10.098-2.068,13.874-4.704c-1.93-1.21-3.74-2.637-5.413-4.292C81.642,179.221,85,178,86.986,175.486z"/>
	<polygon points="100.191,1.734 99.965,1.745 100.191,1.743 	"/>
	<path d="M135.154,2h-0.001l0.227,60h-6.68l-0.047-0.078l0.424,100.39c0,0-2.827,18.593-21.862,19.479
		c-5.81,0.27-10.857-0.69-15.076-2.799c-1.49,1.658-3.182,3.194-5.084,4.522c5.971,3.743,13.114,5.374,21.089,5.003
		c18.421-0.858,26.803-19.093,27.631-27.747L135.154,2z"/>
	<path d="M92.139,178.991c-1.885-0.942-3.605-2.112-5.153-3.505c-1.986,2.514-5.344,3.734-5.344,3.734
		c1.673,1.656,3.483,3.083,5.413,4.292C88.957,182.185,90.649,180.649,92.139,178.991z"/>
	<polygon fill="#720F0F" points="99.965,1.745 93.251,1.809 93.584,36.75 93.437,2.049 	"/>
	<path fill="#720F0F" d="M100.508,12.431l0.254-0.094c2.857,6.516,5.629,12.38,9.56,19.068l18.331,30.516L128.4,2h-0.261L128,27
		c0,10,0,17,0.448,24.567l-0.167,0.093c-2.693-6.16-5.963-12.493-10.146-19.532L101.065,1.735l-0.873,0.008l0.126,32.164
		C100.348,25.254,100.956,19.405,100.508,12.431z"/>
	<path fill="#720F0F" d="M100.3,62.152l0.022-25.812c-0.008-0.839-0.008-1.644-0.005-2.433l-0.126-32.164l-0.227,0.002l-6.528,0.304
		l0.147,34.701l0.243,25.466L100.3,62.152z"/>
	<polygon fill="#720F0F" points="128.7,62 135.38,62 135.153,2 128.4,2 128.653,61.922 	"/>
</g>
</svg>
