<svg id="Layer_1" data-name="Layer 1" xmlns="http://www.w3.org/2000/svg" viewBox="0 0 130.62 8.89"><defs><style>.cls-1{fill:#fff;stroke:#000;stroke-width:0.25px;}</style></defs><path class="cls-1" d="M14.22,7.11s.06.13.11.38L16,14.06h0l1.8-5.63.43-1.32h.6s.1.26.25.76l2,6.19h0l1.77-6.94h.89l-2.18,8.41c0,.11,0,.16-.06.16h-.75a2.1,2.1,0,0,1-.17-.49l-2-6.35h0l-2.2,6.84h-.76s-.09-.29-.23-.86l-2-7.71h.87Z" transform="translate(-13.21 -6.99)"/><path class="cls-1" d="M27.19,10.07a2.59,2.59,0,0,1,2.07,1.07,2.9,2.9,0,0,1,.57,1.63v.07c0,.18,0,.27,0,.27H25.34a2,2,0,0,0,.24.79,1.89,1.89,0,0,0,1,.92,1.91,1.91,0,0,0,.58.1,1.76,1.76,0,0,0,1.39-.69,1.83,1.83,0,0,0,.27-.46h0c.32.13.57.23.75.32A2.75,2.75,0,0,1,29,15a2.54,2.54,0,0,1-1.83.79,2.59,2.59,0,0,1-2.09-1.07,3,3,0,0,1-.57-1.73v0a2.87,2.87,0,0,1,.84-2.05A2.53,2.53,0,0,1,27.19,10.07ZM25.43,12.3h3.5a2,2,0,0,0-.83-1.13,1.73,1.73,0,0,0-.93-.27,1.78,1.78,0,0,0-1.46.79A2,2,0,0,0,25.43,12.3Z" transform="translate(-13.21 -6.99)"/><path class="cls-1" d="M31.22,7.11H32l0,0v3.92h0a2.56,2.56,0,0,1,.5-.54,2.15,2.15,0,0,1,1.36-.44,2.69,2.69,0,0,1,2.3,1.23,2.83,2.83,0,0,1,.47,1.54V13a2.85,2.85,0,0,1-.79,1.95,3,3,0,0,1-.77.56,2.68,2.68,0,0,1-1.13.26h0a2.12,2.12,0,0,1-1.9-1h0v.91H31.2V7.13Zm.85,5.73v.07a2.07,2.07,0,0,0,.78,1.67,1.82,1.82,0,0,0,1.12.34A1.85,1.85,0,0,0,35.52,14,2.11,2.11,0,0,0,35.83,13v-.09a2,2,0,0,0-.71-1.54,1.91,1.91,0,0,0-1.26-.43,1.72,1.72,0,0,0-1.62,1.15A2,2,0,0,0,32.07,12.84Z" transform="translate(-13.21 -6.99)"/><path class="cls-1" d="M39.86,10H40a2.39,2.39,0,0,1,1.13.28,2,2,0,0,1,.38.26,2.64,2.64,0,0,1,.29.29l.08.13c-.35.21-.59.34-.7.42h0a1.14,1.14,0,0,0-.31-.31,1.61,1.61,0,0,0-.91-.25,1.59,1.59,0,0,0-1,.3.69.69,0,0,0-.27.52.37.37,0,0,0,.17.32.68.68,0,0,0,.19.11,4.21,4.21,0,0,0,.87.28l.75.15a2.24,2.24,0,0,1,.48.16,2.32,2.32,0,0,1,.36.22l.21.2A1.35,1.35,0,0,1,42,14v0a1.5,1.5,0,0,1-.38,1,1.4,1.4,0,0,1-.24.22,2.27,2.27,0,0,1-1.49.48h-.08a2.6,2.6,0,0,1-1.24-.32,2.33,2.33,0,0,1-.9-.89l.34-.2.38-.2a1.55,1.55,0,0,0,.78.67,2,2,0,0,0,.68.12,1.79,1.79,0,0,0,.93-.24.86.86,0,0,0,.21-.17.72.72,0,0,0,.19-.48.69.69,0,0,0-.48-.61,1.94,1.94,0,0,0-.34-.11A10,10,0,0,1,38.9,13c-.73-.27-1.09-.7-1.09-1.29h0a1.45,1.45,0,0,1,.41-1,1.22,1.22,0,0,1,.27-.23,1.83,1.83,0,0,1,.61-.3A2.85,2.85,0,0,1,39.86,10Z" transform="translate(-13.21 -6.99)"/><path class="cls-1" d="M45.57,10.07a2.57,2.57,0,0,1,2.06,1.07,2.9,2.9,0,0,1,.57,1.63v.07q0,.27,0,.27H43.72a2.17,2.17,0,0,0,.23.79,1.94,1.94,0,0,0,1,.92,1.86,1.86,0,0,0,.58.1,1.78,1.78,0,0,0,1.39-.69,2.78,2.78,0,0,0,.27-.46h0c.31.13.56.23.74.32a2.69,2.69,0,0,1-.57.86,2.55,2.55,0,0,1-1.84.79,2.6,2.6,0,0,1-2.09-1.07,3,3,0,0,1-.57-1.73v0a2.87,2.87,0,0,1,.84-2.05A2.56,2.56,0,0,1,45.57,10.07ZM43.8,12.3h3.51a2.05,2.05,0,0,0-.84-1.13,1.68,1.68,0,0,0-.93-.27,1.79,1.79,0,0,0-1.46.79A2.25,2.25,0,0,0,43.8,12.3Z" transform="translate(-13.21 -6.99)"/><path class="cls-1" d="M50,7.11h0a.58.58,0,0,1,.41.19.59.59,0,0,1,.15.38v0a.58.58,0,0,1-.21.44.59.59,0,0,1-.36.13h0a.54.54,0,0,1-.44-.22.59.59,0,0,1-.12-.34v0a.61.61,0,0,1,.18-.41A.59.59,0,0,1,50,7.11Zm-.38,3h.81v5.55h-.82V10.13Z" transform="translate(-13.21 -6.99)"/><path class="cls-1" d="M52.53,7.11h.82v3h1.51v.81H53.35v3.22a.83.83,0,0,0,.12.44.6.6,0,0,0,.33.23l.17,0h0a1.83,1.83,0,0,0,.61-.15l.07,0,.34.75-.34.14a2.45,2.45,0,0,1-.64.12h-.1a1.43,1.43,0,0,1-.66-.18,1.34,1.34,0,0,1-.64-.73,1.85,1.85,0,0,1-.11-.67V11H51.6v-.81h.93Z" transform="translate(-13.21 -6.99)"/><path class="cls-1" d="M58.46,10.07a2.58,2.58,0,0,1,2.07,1.07,2.9,2.9,0,0,1,.57,1.63v.07c0,.18,0,.27,0,.27H56.62a2,2,0,0,0,.23.79,1.89,1.89,0,0,0,1,.92,1.91,1.91,0,0,0,.58.1,1.76,1.76,0,0,0,1.39-.69,1.83,1.83,0,0,0,.27-.46h0c.32.13.57.23.75.32a2.75,2.75,0,0,1-.58.86,2.53,2.53,0,0,1-1.83.79,2.59,2.59,0,0,1-2.09-1.07,3,3,0,0,1-.57-1.73v0a2.87,2.87,0,0,1,.84-2.05A2.53,2.53,0,0,1,58.46,10.07ZM56.7,12.3h3.5a2,2,0,0,0-.83-1.13,1.73,1.73,0,0,0-.93-.27,1.78,1.78,0,0,0-1.46.79A2,2,0,0,0,56.7,12.3Z" transform="translate(-13.21 -6.99)"/><path class="cls-1" d="M67.61,10.07a2.58,2.58,0,0,1,2.07,1.07,2.9,2.9,0,0,1,.57,1.63v.07q0,.27,0,.27H65.77a2.17,2.17,0,0,0,.23.79,1.94,1.94,0,0,0,1,.92,1.81,1.81,0,0,0,.58.1A1.79,1.79,0,0,0,69,14.23a2.08,2.08,0,0,0,.26-.46h0c.31.13.56.23.74.32a2.87,2.87,0,0,1-.57.86,2.55,2.55,0,0,1-1.84.79,2.6,2.6,0,0,1-2.09-1.07,3,3,0,0,1-.57-1.73v0a2.87,2.87,0,0,1,.84-2.05A2.55,2.55,0,0,1,67.61,10.07ZM65.85,12.3h3.5a2,2,0,0,0-.83-1.13,1.68,1.68,0,0,0-.93-.27,1.78,1.78,0,0,0-1.46.79A2.25,2.25,0,0,0,65.85,12.3Z" transform="translate(-13.21 -6.99)"/><path class="cls-1" d="M74,10.08a2,2,0,0,1,1.09.28l-.18.87h0a2,2,0,0,0-1-.3,1.39,1.39,0,0,0-1.37.9,1.12,1.12,0,0,0-.09.44v3.4l0,0h-.78l0,0V10.21l0,0h.78l0,0v.48h0a1.37,1.37,0,0,1,.75-.51A3.38,3.38,0,0,1,74,10.08Z" transform="translate(-13.21 -6.99)"/><path class="cls-1" d="M77.91,10H78a2.4,2.4,0,0,1,1.14.28,1.94,1.94,0,0,1,.37.26,2,2,0,0,1,.29.29l.09.13-.71.42h0a1.19,1.19,0,0,0-.32-.31,1.57,1.57,0,0,0-.91-.25,1.59,1.59,0,0,0-1,.3.71.71,0,0,0-.26.52.37.37,0,0,0,.17.32.5.5,0,0,0,.18.11,4.35,4.35,0,0,0,.88.28l.74.15a2.24,2.24,0,0,1,.48.16,2.32,2.32,0,0,1,.36.22A1.39,1.39,0,0,1,80.06,14v0a1.56,1.56,0,0,1-.38,1,1.4,1.4,0,0,1-.24.22l-.34.22a2.8,2.8,0,0,1-1.16.26h-.07a2.64,2.64,0,0,1-1.25-.32,2.31,2.31,0,0,1-.89-.89l.34-.2.37-.2a1.58,1.58,0,0,0,.79.67,1.91,1.91,0,0,0,.68.12,1.78,1.78,0,0,0,.92-.24.87.87,0,0,0,.22-.17.77.77,0,0,0,.19-.48c0-.25-.16-.46-.49-.61a1.94,1.94,0,0,0-.34-.11A10.73,10.73,0,0,1,76.94,13q-1.08-.41-1.08-1.29h0a1.44,1.44,0,0,1,.4-1,1.22,1.22,0,0,1,.27-.23,1.93,1.93,0,0,1,.61-.3A3,3,0,0,1,77.91,10Z" transform="translate(-13.21 -6.99)"/><path class="cls-1" d="M81.67,7.11h.82v3H84v.81H82.49v3.22a.83.83,0,0,0,.12.44.6.6,0,0,0,.33.23l.17,0h0a1.83,1.83,0,0,0,.61-.15l.07,0,.34.75-.34.14a2.45,2.45,0,0,1-.64.12h-.1a1.43,1.43,0,0,1-.66-.18,1.34,1.34,0,0,1-.64-.73,1.85,1.85,0,0,1-.11-.67V11h-.93v-.81h.93Z" transform="translate(-13.21 -6.99)"/><path class="cls-1" d="M87.6,10.07a2.59,2.59,0,0,1,2.07,1.07,2.9,2.9,0,0,1,.57,1.63v.07c0,.18,0,.27,0,.27H85.75a2,2,0,0,0,.24.79,1.89,1.89,0,0,0,1,.92,1.91,1.91,0,0,0,.58.1A1.76,1.76,0,0,0,89,14.23a1.83,1.83,0,0,0,.27-.46h0c.32.13.57.23.75.32a2.75,2.75,0,0,1-.58.86,2.54,2.54,0,0,1-1.83.79,2.59,2.59,0,0,1-2.09-1.07,3,3,0,0,1-.57-1.73v0a2.87,2.87,0,0,1,.84-2.05A2.53,2.53,0,0,1,87.6,10.07ZM85.84,12.3h3.5a2,2,0,0,0-.83-1.13,1.73,1.73,0,0,0-.93-.27,1.78,1.78,0,0,0-1.46.79A2,2,0,0,0,85.84,12.3Z" transform="translate(-13.21 -6.99)"/><path class="cls-1" d="M91.61,7.11h.82v8.56h-.82V7.12Z" transform="translate(-13.21 -6.99)"/><path class="cls-1" d="M94.22,7.11H95v8.56h-.82V7.12Z" transform="translate(-13.21 -6.99)"/><path class="cls-1" d="M99,10.07a2.58,2.58,0,0,1,2.07,1.07,2.9,2.9,0,0,1,.57,1.63v.07c0,.18,0,.27,0,.27H97.15a2,2,0,0,0,.23.79,1.89,1.89,0,0,0,1,.92,1.91,1.91,0,0,0,.58.1,1.76,1.76,0,0,0,1.39-.69,1.83,1.83,0,0,0,.27-.46h0c.32.13.57.23.75.32a2.75,2.75,0,0,1-.58.86,2.54,2.54,0,0,1-1.83.79,2.59,2.59,0,0,1-2.09-1.07,3,3,0,0,1-.57-1.73v0a2.87,2.87,0,0,1,.84-2.05A2.53,2.53,0,0,1,99,10.07ZM97.23,12.3h3.5a2,2,0,0,0-.83-1.13A1.73,1.73,0,0,0,99,10.9a1.78,1.78,0,0,0-1.46.79A2,2,0,0,0,97.23,12.3Z" transform="translate(-13.21 -6.99)"/><path class="cls-1" d="M105.4,10.12h.1a2.2,2.2,0,0,1,2.22,1.26,2.35,2.35,0,0,1,.14.79v3.5l0,0h-.79V12.17a1.12,1.12,0,0,0-.88-1.15,2.79,2.79,0,0,0-.81-.08,1.69,1.69,0,0,0-1.09.31,1.07,1.07,0,0,0-.44,1v3.45l0,0H103l0,0V10.22h.82v.55A2.16,2.16,0,0,1,105.4,10.12Z" transform="translate(-13.21 -6.99)"/><path class="cls-1" d="M112.61,7.11h.81v8.56h-.82V7.12Z" transform="translate(-13.21 -6.99)"/><path class="cls-1" d="M117.62,10.07a2.15,2.15,0,0,1,1.84.94l0,0h0v-.93h.79l0,0v5.53l0,0h-.79v-.92h0a2.12,2.12,0,0,1-1.91,1h0a2.64,2.64,0,0,1-2-.91,2.87,2.87,0,0,1-.72-1.89v-.07a2.89,2.89,0,0,1,.79-2A2.7,2.7,0,0,1,117.62,10.07Zm-2,2.81v0a2,2,0,0,0,.79,1.63,1.83,1.83,0,0,0,2.85-.87,2.08,2.08,0,0,0,.13-.73v-.13a2.15,2.15,0,0,0-.32-1.06,1.68,1.68,0,0,0-1.47-.85,1.89,1.89,0,0,0-1.81,1.17A2.22,2.22,0,0,0,115.67,12.88Z" transform="translate(-13.21 -6.99)"/><path class="cls-1" d="M123.84,10h.08a2.4,2.4,0,0,1,1.14.28,1.94,1.94,0,0,1,.37.26,1.58,1.58,0,0,1,.29.29l.09.13c-.36.21-.59.34-.7.42h0a1.19,1.19,0,0,0-.32-.31,1.56,1.56,0,0,0-.9-.25,1.62,1.62,0,0,0-1,.3.71.71,0,0,0-.26.52.37.37,0,0,0,.17.32.5.5,0,0,0,.18.11,4.35,4.35,0,0,0,.88.28l.74.15a2.16,2.16,0,0,1,.49.16,2.84,2.84,0,0,1,.35.22A1.39,1.39,0,0,1,126,14v0a1.56,1.56,0,0,1-.38,1,1.4,1.4,0,0,1-.24.22,3.81,3.81,0,0,1-.34.22,2.75,2.75,0,0,1-1.15.26h-.08a2.67,2.67,0,0,1-1.25-.32,2.31,2.31,0,0,1-.89-.89l.34-.2.38-.2a1.55,1.55,0,0,0,.78.67,2,2,0,0,0,.68.12,1.84,1.84,0,0,0,.93-.24,1.1,1.1,0,0,0,.21-.17.72.72,0,0,0,.19-.48c0-.25-.16-.46-.49-.61a1.69,1.69,0,0,0-.34-.11,10.73,10.73,0,0,1-1.47-.35q-1.08-.41-1.08-1.29h0a1.44,1.44,0,0,1,.4-1,1.22,1.22,0,0,1,.27-.23,2,2,0,0,1,.61-.3A3,3,0,0,1,123.84,10Z" transform="translate(-13.21 -6.99)"/><path class="cls-1" d="M129.13,10h.08a2.4,2.4,0,0,1,1.14.28,2.35,2.35,0,0,1,.38.26,1.86,1.86,0,0,1,.28.29l.09.13c-.35.21-.59.34-.7.42h0a1.14,1.14,0,0,0-.31-.31,1.61,1.61,0,0,0-.91-.25,1.57,1.57,0,0,0-1,.3.69.69,0,0,0-.27.52.37.37,0,0,0,.17.32.5.5,0,0,0,.18.11,4.35,4.35,0,0,0,.88.28l.75.15a2.24,2.24,0,0,1,.48.16,2.84,2.84,0,0,1,.35.22,1.39,1.39,0,0,1,.22.2,1.35,1.35,0,0,1,.35.91v0a1.5,1.5,0,0,1-.38,1,1.4,1.4,0,0,1-.24.22,3.81,3.81,0,0,1-.34.22,2.75,2.75,0,0,1-1.15.26h-.08a2.67,2.67,0,0,1-1.25-.32,2.31,2.31,0,0,1-.89-.89l.34-.2.38-.2a1.55,1.55,0,0,0,.78.67,2,2,0,0,0,.68.12,1.81,1.81,0,0,0,.93-.24,1.1,1.1,0,0,0,.21-.17.72.72,0,0,0,.19-.48.69.69,0,0,0-.48-.61,2.28,2.28,0,0,0-.34-.11,10,10,0,0,1-1.47-.35c-.73-.27-1.09-.7-1.09-1.29h0a1.45,1.45,0,0,1,.41-1,1,1,0,0,1,.26-.23,2,2,0,0,1,.61-.3A3,3,0,0,1,129.13,10Z" transform="translate(-13.21 -6.99)"/><path class="cls-1" d="M134.83,10.07a2.58,2.58,0,0,1,2.07,1.07,2.9,2.9,0,0,1,.57,1.63v.07c0,.18,0,.27,0,.27H133a2.17,2.17,0,0,0,.23.79,1.91,1.91,0,0,0,1,.92,1.81,1.81,0,0,0,.58.1,1.76,1.76,0,0,0,1.38-.69,1.83,1.83,0,0,0,.27-.46h0c.31.13.56.23.74.32a2.87,2.87,0,0,1-.57.86,2.56,2.56,0,0,1-3.93-.28,3,3,0,0,1-.57-1.73v0a2.87,2.87,0,0,1,.84-2.05A2.53,2.53,0,0,1,134.83,10.07Zm-1.76,2.23h3.5a2,2,0,0,0-.83-1.13,1.68,1.68,0,0,0-.93-.27,1.78,1.78,0,0,0-1.46.79A2.25,2.25,0,0,0,133.07,12.3Z" transform="translate(-13.21 -6.99)"/><path class="cls-1" d="M141.24,10.12h.1a2.2,2.2,0,0,1,2.22,1.26,2.12,2.12,0,0,1,.14.79v3.52h-.79l0,0v-3.5A1.12,1.12,0,0,0,142,11a2.75,2.75,0,0,0-.8-.08,1.7,1.7,0,0,0-1.1.31,1.07,1.07,0,0,0-.44,1v3.45l0,0h-.78l0,0V10.22h.82v.55A2.16,2.16,0,0,1,141.24,10.12Z" transform="translate(-13.21 -6.99)"/></svg>