<svg id="Layer_1" data-name="Layer 1" xmlns="http://www.w3.org/2000/svg" viewBox="0 0 151 151"><defs><style>.cls-1{fill:none;stroke:#000;stroke-miterlimit:10;}.cls-2{fill:#b9dded;}</style></defs><path class="cls-1" d="M61.3,18l-22.45-.31a5.56,5.56,0,0,0-2.92.48c-1.59.91-1.92,3-2,4.86-.36,6.48-.15,13,.06,19.48l1.21,38.05c.47,14.79,1,29.61,2.8,44.3a5.87,5.87,0,0,0,.66,2.37,5.32,5.32,0,0,0,2.6,1.89c4.19,1.78,8.78,2.38,13.31,2.81,17.12,1.62,34.37,1,51.56.42A4.24,4.24,0,0,0,108,132a4.29,4.29,0,0,0,1.52-1.69,26.51,26.51,0,0,0,3.3-7c.84-3.35.45-6.88.12-10.32-3.06-31.44-1.06-63.26-5.09-94.59a4.72,4.72,0,0,0-.77-2.42c-.85-1.07-2.4-1.21-3.76-1.26-17.06-.61-22.37,1-39.34,2.82Z"/><path class="cls-1" d="M39.86,113.81q34.68-.66,69.37-.73"/><path class="cls-1" d="M72.68,120.8c-.69-.17-1.12.78-1,1.49.25,2.14,2.26,3.59,4.14,4.66a5.73,5.73,0,0,0,3,1c2-.1,3.44-2.4,3.13-4.41a6.76,6.76,0,0,0-3.68-4.58,4.58,4.58,0,0,0-2.93-.68,2.19,2.19,0,0,0-1.9,2"/><circle class="cls-1" cx="75.5" cy="75.5" r="75"/><rect class="cls-2" x="38.29" y="27.01" width="67" height="20" transform="translate(-1.1 2.22) rotate(-1.76)"/><rect class="cls-2" x="41.63" y="52.92" width="22.29" height="20" transform="translate(-1.9 1.65) rotate(-1.76)"/><rect class="cls-2" x="68.26" y="51.9" width="35.29" height="20" transform="translate(-1.86 2.66) rotate(-1.76)"/><rect class="cls-2" x="42.18" y="78.62" width="22.29" height="4.19" transform="translate(-2.45 1.67) rotate(-1.76)"/><rect class="cls-2" x="42.35" y="84.21" width="22.29" height="4.19" transform="translate(-2.62 1.68) rotate(-1.76)"/><rect class="cls-2" x="42.52" y="89.81" width="22.29" height="4.19" transform="translate(-2.79 1.69) rotate(-1.76)"/><rect class="cls-2" x="68.82" y="77.8" width="35.29" height="4.19" transform="translate(-2.41 2.69) rotate(-1.76)"/><rect class="cls-2" x="68.99" y="83.4" width="35.29" height="4.19" transform="translate(-2.58 2.7) rotate(-1.76)"/><rect class="cls-2" x="69.16" y="89" width="35.29" height="4.19" transform="translate(-2.75 2.7) rotate(-1.76)"/><rect class="cls-2" x="40.54" y="101.36" width="67" height="9.09" transform="translate(-3.21 2.32) rotate(-1.76)"/></svg>