<svg id="Layer_1" data-name="Layer 1" xmlns="http://www.w3.org/2000/svg" viewBox="0 0 151 151"><defs><style>.cls-1{fill:#fff;}.cls-1,.cls-2,.cls-3{stroke:#000;stroke-miterlimit:10;}.cls-2{fill:#ffcdc0;}.cls-3{fill:none;}</style></defs><circle class="cls-1" cx="75.5" cy="75.5" r="75"/><path class="cls-2" d="M29.48,41.31c4.08,1.94,8.71,3.19,13.12,2.22,2.95-.64,5.59-2.21,8.31-3.52,5.79-2.8,12.06-4.44,18.28-6.07a8.11,8.11,0,0,1,2.92-.39,22.66,22.66,0,0,1,3.18.94,16.14,16.14,0,0,0,4.66.12c7.59-.39,15,1.88,22.61,2.6a55.63,55.63,0,0,0,25.22-3.48,196.67,196.67,0,0,1,10.64,43.94A12.46,12.46,0,0,0,128,82.49c-1.05,1.37-1.79,3-2.91,4.27a5.29,5.29,0,0,1-4.47,2.14c1.16,2.54,2.33,5.52,1.09,8a6.44,6.44,0,0,1-5.28,3.21,18.93,18.93,0,0,1-6.37-.86A8.24,8.24,0,0,1,97.92,109a9.76,9.76,0,0,1-3.14,7.56c-2.18,1.78-5.72,2-7.71,0-1.52,4.24-7.47,6.1-11.13,3.49a7.35,7.35,0,0,1-14.08,1.1c-2.33,1.47-5.22,2.35-7.84,1.52s-4.62-3.82-3.66-6.39c-3.42,1.24-7.19,2.23-10.66,1.13s-6.23-5.06-4.82-8.42a3.35,3.35,0,0,1-3.57,2,6.21,6.21,0,0,1-3.75-2.17,11.7,11.7,0,0,1,0-15.26l-13.18-7a3.52,3.52,0,0,1-1.57-1.27,3.61,3.61,0,0,1,.23-3Q21,61.7,30.16,41.7"/><path class="cls-2" d="M76.44,35.15c-8.51.15-20.51,8.55-24.11,11-1.2,1.2-2.4,3.6-3.6,6a55.79,55.79,0,0,0-3.6,10.8c0,1.2,1.2,2.4,2.4,3.6s3.6,1.2,3.6,1.2c4.8,0,6.44-2.08,7.2-3.6l3.6-7.2a43.8,43.8,0,0,1,13.2-6c3.6,4.8,9.6,9.6,13.2,10.8,1.59.53,6,2.4,9.93,2.24a33.55,33.55,0,0,0,9.43-1.23"/><path class="cls-2" d="M98.86,64.69c4.53,5,4,8.46,8.54,13.48,3.67,4.06,7.41,8.18,12,11.11"/><path class="cls-2" d="M95.06,84.79l8.4,6.7a23.67,23.67,0,0,1,5.32,5.25"/><path class="cls-2" d="M84,96.28a43.31,43.31,0,0,1,9,6.38c.53.49,1.05,1,1.57,1.5l3.18,3.08"/><path class="cls-2" d="M73.21,105.82a4.46,4.46,0,0,0,2.38,2.24c1,.47,2.11.74,3.14,1.17,3,1.28,5.19,3.88,7.26,6.4"/><path class="cls-2" d="M34.88,109c.62-1.47,3.25-5.36,4.09-9.3a29.17,29.17,0,0,0,.39-6.54,5.46,5.46,0,0,0-.43-2.44,3.65,3.65,0,0,0-1.78-1.55,6.52,6.52,0,0,0-6,.63,10.24,10.24,0,0,0-3.83,4.88"/><path class="cls-2" d="M50.36,116.26c2.16-6,3.14-12.76,1.22-18.61-.65-2-1.9-4-3.93-4.59a5.48,5.48,0,0,0-4.83,1.31,16.52,16.52,0,0,0-3.19,4.08"/><path class="cls-3" d="M62.06,121.75a38.66,38.66,0,0,0,2.24-12.23,14.15,14.15,0,0,0-1-6.23,6.31,6.31,0,0,0-4.78-3.78,5,5,0,0,0-4,1l-2,2"/><path class="cls-2" d="M75.52,120.1l-.81-4.58a14.34,14.34,0,0,0-1.84-5.62c-1.12-1.65-3.2-2.81-5.11-2.24-2.13.64-3.15,3.06-3.58,5.24"/></svg>