<?xml version="1.0" encoding="utf-8"?>
<!-- Generator: Adobe Illustrator 25.2.1, SVG Export Plug-In . SVG Version: 6.00 Build 0)  -->
<svg version="1.1" id="Layer_1" xmlns="http://www.w3.org/2000/svg" xmlns:xlink="http://www.w3.org/1999/xlink" x="0px" y="0px"
	 viewBox="0 0 128 200" style="enable-background:new 0 0 128 200;" xml:space="preserve">
<g>
	<g>
		<path style="fill:#FFFFFF;" d="M65.191,1.734 M59.115,162.013c0,0-2.827,18.593-21.862,19.479
			c-15.351,0.715-24.904-6.225-30.06-24.446c-3.07,0.143-3.684,0.172-6.754,0.314c5.327,21.905,19.322,31.715,37.743,30.857
			c18.421-0.858,26.803-19.093,27.631-27.747L65.191,1.734l-6.754,0.314L59.115,162.013z"/>
		<g>
			<path style="fill:#FFFFFF;" d="M119.596,151.677l0.167-0.091c-0.662-8.064-0.829-15.413-0.829-24.824l0-75.277h6.536L125.676,162
				l-6.411,0L75,106c0,0-31.689-38.383-34.478-44.926l-0.254,0.091c0.415,7.616,0.575,14.877,0.575,24.916L39.743,162h-6.628
				l1-110.516l6.408,0C40.523,51.484,76.44,95,80,99S119.596,151.677,119.596,151.677z"/>
		</g>
		<path style="fill:#FFFFFF;" d="M100.154,2.033 M46.642,179.221c6.85,6.778,15.95,9.787,26.502,9.295
			c18.421-0.858,26.803-19.093,27.631-27.747L100.154,2H93.4l0.678,160.311c0,0-2.827,18.593-21.862,19.479
			c-8.404,0.391-15.216-1.79-20.23-6.304C50,178,46.642,179.221,46.642,179.221z"/>
	</g>
	<g>
		<path style="fill:#720F0F;" d="M58.827,62.216L58.251,1.809l7.814-0.075l17.071,30.393c4.182,7.04,7.453,13.373,10.146,19.532
			l0.167-0.093C93,44,93,37,93,27l0.139-25h7.014l0.227,60H93.7L75.322,31.405c-3.931-6.688-6.703-12.553-9.56-19.068l-0.254,0.094
			c0.488,7.611-0.282,13.871-0.186,23.909L65.3,62.152L58.827,62.216z"/>
	</g>
</g>
</svg>
