<svg id="Layer_1" data-name="Layer 1" xmlns="http://www.w3.org/2000/svg" viewBox="0 0 336 287.5"><defs><style>.cls-1{fill:#a2ffbc;}.cls-1,.cls-2,.cls-3{stroke:#000;stroke-miterlimit:10;}.cls-2{fill:#3cc;}.cls-3{fill:#b9f4ff;}</style></defs><polyline class="cls-1" points="137.08 287 195.63 286.5 212.57 286.5 212.26 227 265.36 286.5 335.5 286.5 335.5 0.5 294.75 0.5 294.75 59 241.59 0.5 172.8 0.5"/><polygon class="cls-2" points="205.79 0.5 104.44 0.5 104.44 128.5 0.5 128.5 0.5 286.5 157.26 287 205.79 0.5"/><polygon class="cls-1" points="108.3 81 108.04 6 145.24 6 182.43 6 108.3 81"/><polygon class="cls-3" points="326.51 204.97 326.76 279.97 297.64 279.99 268.52 280.02 326.51 204.97"/><polygon class="cls-1" points="23.26 242 23 167 60.2 167 97.14 167 23.26 242"/><polygon class="cls-3" points="97.14 167 97.39 242 60.2 242 23.26 242 97.14 167"/></svg>