<?xml version="1.0" encoding="utf-8"?>
<!-- Generator: Adobe Illustrator 25.2.1, SVG Export Plug-In . SVG Version: 6.00 Build 0)  -->
<svg version="1.1" id="Layer_1" xmlns="http://www.w3.org/2000/svg" xmlns:xlink="http://www.w3.org/1999/xlink" x="0px" y="0px"
	 viewBox="0 0 120 200" style="enable-background:new 0 0 120 200;" xml:space="preserve">
<path d="M67.191,3.734 M61.115,164.013c0,0-2.827,18.593-21.862,19.479c-15.351,0.715-24.904-6.225-30.06-24.446
	c-3.07,0.143-3.684,0.172-6.754,0.314c5.327,21.905,19.322,31.715,37.743,30.857c18.421-0.858,26.803-19.093,27.631-27.747
	L67.191,3.734l-6.754,0.314L61.115,164.013z"/>
<path d="M64.258,65.553"/>
<g>
	<path style="fill:#720F0F;" d="M60.827,64.216L60.251,3.809l7.814-0.075l17.071,30.393c4.182,7.04,7.453,13.373,10.146,19.532
		l0.167-0.093C95,46,95,39,95,29l0.139-25h7.014l0.227,60H95.7L77.322,33.405c-3.931-6.688-6.703-12.553-9.56-19.068l-0.254,0.094
		c0.488,7.611-0.282,13.871-0.186,23.909L67.3,64.152L60.827,64.216z"/>
</g>
<g>
	<g>
		<linearGradient id="SVGID_1_" gradientUnits="userSpaceOnUse" x1="72.3325" y1="159.9355" x2="72.3325" y2="64.6255">
			<stop  offset="0" style="stop-color:#000000"/>
			<stop  offset="1" style="stop-color:#720F0F"/>
		</linearGradient>
		<path style="fill:url(#SVGID_1_);" d="M75.747,67.957v0.357l-0.005,0.004h-4.833c-0.529,0-0.995-0.168-1.396-0.506
			c-0.108-0.102-0.176-0.173-0.204-0.213c-0.161-0.195-0.268-0.408-0.32-0.641c-0.021-0.102-0.032-0.188-0.032-0.26V66.25
			c0-0.214,0.063-0.437,0.19-0.668c0.213-0.368,0.542-0.642,0.988-0.821c0.25-0.09,0.492-0.135,0.724-0.135h0.385l0.004,0.005v0.357
			l-0.004,0.004H70.88c-0.343,0-0.668,0.101-0.974,0.302c-0.263,0.18-0.441,0.402-0.534,0.668c-0.034,0.108-0.051,0.211-0.051,0.307
			v0.413c0,0.2,0.071,0.404,0.214,0.611c0.031,0.05,0.093,0.121,0.186,0.214l0.097,0.079c0.099,0.074,0.184,0.13,0.255,0.167
			c0.08,0.043,0.179,0.083,0.297,0.12c0.161,0.053,0.351,0.079,0.57,0.079h4.801L75.747,67.957z"/>
		<linearGradient id="SVGID_2_" gradientUnits="userSpaceOnUse" x1="72.3325" y1="159.9355" x2="72.3325" y2="64.6255">
			<stop  offset="0" style="stop-color:#000000"/>
			<stop  offset="1" style="stop-color:#720F0F"/>
		</linearGradient>
		<path style="fill:url(#SVGID_2_);" d="M73.362,72.012v0.023c0,0.622-0.283,1.152-0.849,1.591l-0.097,0.061v0.005h0.891
			l0.014,0.014v0.334l-0.014,0.009h-4.295l-0.014-0.009v-0.334l0.014-0.014h0.891v-0.005c-0.393-0.241-0.676-0.597-0.849-1.066
			c-0.065-0.195-0.098-0.397-0.098-0.608c0-0.609,0.272-1.133,0.816-1.572c0.417-0.297,0.877-0.445,1.378-0.445h0.019
			c0.606,0,1.136,0.21,1.591,0.631C73.161,71.034,73.362,71.496,73.362,72.012z M71.164,70.352c-0.606,0-1.11,0.234-1.512,0.705
			c-0.226,0.303-0.338,0.624-0.338,0.965c0,0.464,0.194,0.869,0.584,1.215c0.365,0.304,0.787,0.455,1.267,0.455
			s0.906-0.158,1.28-0.474c0.374-0.343,0.562-0.743,0.562-1.201c0-0.52-0.245-0.963-0.733-1.331
			C71.923,70.463,71.553,70.352,71.164,70.352z"/>
		<linearGradient id="SVGID_3_" gradientUnits="userSpaceOnUse" x1="72.3325" y1="159.9355" x2="72.3325" y2="64.6255">
			<stop  offset="0" style="stop-color:#000000"/>
			<stop  offset="1" style="stop-color:#720F0F"/>
		</linearGradient>
		<path style="fill:url(#SVGID_3_);" d="M75.747,75.933v0.339l-0.014,0.014h-4.574l2.208,2.328v0.529h-0.009l-1.865-1.962h-0.004
			l-2.519,1.989h-0.014v-0.468c0.016-0.021,0.298-0.244,0.849-0.668c0.86-0.681,1.338-1.054,1.434-1.118v-0.01l-0.594-0.621h-1.675
			l-0.014-0.014v-0.339l0.014-0.014h6.764L75.747,75.933z"/>
		<linearGradient id="SVGID_4_" gradientUnits="userSpaceOnUse" x1="72.3325" y1="159.9355" x2="72.3325" y2="64.6255">
			<stop  offset="0" style="stop-color:#000000"/>
			<stop  offset="1" style="stop-color:#720F0F"/>
		</linearGradient>
		<path style="fill:url(#SVGID_4_);" d="M73.362,82.253v0.023c0,0.603-0.266,1.12-0.798,1.554c-0.43,0.306-0.888,0.459-1.373,0.459
			h-0.065c-0.591,0-1.118-0.215-1.582-0.645c-0.393-0.399-0.589-0.863-0.589-1.392c0-0.609,0.272-1.134,0.816-1.572
			c0.417-0.297,0.877-0.445,1.378-0.445h0.019c0.606,0,1.136,0.21,1.591,0.631C73.161,81.275,73.362,81.737,73.362,82.253z
			 M71.164,80.592c-0.606,0-1.11,0.235-1.512,0.705c-0.226,0.304-0.338,0.625-0.338,0.965c0,0.464,0.194,0.869,0.584,1.216
			c0.365,0.303,0.787,0.454,1.267,0.454s0.906-0.157,1.28-0.473c0.374-0.344,0.562-0.744,0.562-1.202
			c0-0.52-0.245-0.963-0.733-1.331C71.923,80.704,71.553,80.592,71.164,80.592z"/>
		<linearGradient id="SVGID_5_" gradientUnits="userSpaceOnUse" x1="72.3325" y1="159.9355" x2="72.3325" y2="64.6255">
			<stop  offset="0" style="stop-color:#000000"/>
			<stop  offset="1" style="stop-color:#720F0F"/>
		</linearGradient>
		<path style="fill:url(#SVGID_5_);" d="M75.747,85.896v0.339l-0.014,0.014h-3.289v0.005c0.396,0.241,0.684,0.6,0.863,1.076
			c0.068,0.204,0.102,0.413,0.102,0.626c0,0.581-0.243,1.087-0.729,1.517c-0.448,0.362-0.943,0.543-1.484,0.543h-0.064
			c-0.616,0-1.165-0.229-1.647-0.687c-0.377-0.421-0.566-0.869-0.566-1.346v-0.055c0-0.606,0.271-1.133,0.812-1.578l0.153-0.097
			v-0.005h-0.918l-0.009-0.014v-0.339l0.009-0.014h6.768L75.747,85.896z M71.154,86.249c-0.482,0-0.916,0.159-1.299,0.478
			c-0.38,0.35-0.571,0.76-0.571,1.229c0,0.51,0.23,0.948,0.691,1.312c0.355,0.254,0.753,0.381,1.192,0.381
			c0.609,0,1.119-0.238,1.53-0.715c0.229-0.312,0.344-0.642,0.344-0.988c0-0.507-0.229-0.942-0.687-1.308
			C72,86.378,71.6,86.249,71.154,86.249z"/>
		<linearGradient id="SVGID_6_" gradientUnits="userSpaceOnUse" x1="72.3325" y1="159.9355" x2="72.3325" y2="64.6255">
			<stop  offset="0" style="stop-color:#000000"/>
			<stop  offset="1" style="stop-color:#720F0F"/>
		</linearGradient>
		<path style="fill:url(#SVGID_6_);" d="M75.747,94.555v0.562c-0.037,0.031-0.261,0.165-0.673,0.403l-5.738,3.354v0.004h6.397
			l0.014,0.014v0.339l-0.014,0.015h-6.764l-0.014-0.015v-0.547c0.012-0.019,0.161-0.108,0.445-0.27l5.965-3.483v-0.01h-6.397
			l-0.014-0.009v-0.334c0-0.021,0.006-0.034,0.019-0.037h6.759L75.747,94.555z"/>
		<linearGradient id="SVGID_7_" gradientUnits="userSpaceOnUse" x1="72.3325" y1="159.9355" x2="72.3325" y2="64.6255">
			<stop  offset="0" style="stop-color:#000000"/>
			<stop  offset="1" style="stop-color:#720F0F"/>
		</linearGradient>
		<path style="fill:url(#SVGID_7_);" d="M73.362,102.943v0.023c0,0.604-0.266,1.121-0.798,1.555
			c-0.43,0.305-0.888,0.459-1.373,0.459h-0.065c-0.591,0-1.118-0.215-1.582-0.645c-0.393-0.4-0.589-0.863-0.589-1.393
			c0-0.609,0.272-1.133,0.816-1.572c0.417-0.297,0.877-0.445,1.378-0.445h0.019c0.606,0,1.136,0.21,1.591,0.63
			C73.161,101.965,73.362,102.428,73.362,102.943z M71.164,101.283c-0.606,0-1.11,0.234-1.512,0.705
			c-0.226,0.303-0.338,0.625-0.338,0.965c0,0.463,0.194,0.869,0.584,1.215c0.365,0.303,0.787,0.455,1.267,0.455
			s0.906-0.158,1.28-0.473c0.374-0.344,0.562-0.744,0.562-1.203c0-0.52-0.245-0.963-0.733-1.33
			C71.923,101.395,71.553,101.283,71.164,101.283z"/>
		<linearGradient id="SVGID_8_" gradientUnits="userSpaceOnUse" x1="72.3325" y1="159.9355" x2="72.3325" y2="64.6255">
			<stop  offset="0" style="stop-color:#000000"/>
			<stop  offset="1" style="stop-color:#720F0F"/>
		</linearGradient>
		<path style="fill:url(#SVGID_8_);" d="M73.362,108.168v0.311c0,0.594-0.215,1.047-0.645,1.359
			c-0.238,0.158-0.52,0.236-0.844,0.236h-2.904l-0.014-0.014v-0.338l0.014-0.01h2.857c0.579,0,0.946-0.258,1.104-0.775
			c0.043-0.148,0.064-0.318,0.064-0.514v-0.199c0-0.598-0.21-0.994-0.631-1.193c-0.139-0.061-0.317-0.092-0.533-0.092h-2.862
			l-0.014-0.014v-0.34l0.014-0.014h4.319l0.014,0.014v0.34l-0.014,0.014h-0.497C73.172,107.254,73.362,107.664,73.362,108.168z"/>
		<linearGradient id="SVGID_9_" gradientUnits="userSpaceOnUse" x1="72.3325" y1="159.9355" x2="72.3325" y2="64.6255">
			<stop  offset="0" style="stop-color:#000000"/>
			<stop  offset="1" style="stop-color:#720F0F"/>
		</linearGradient>
		<path style="fill:url(#SVGID_9_);" d="M73.362,113.533v0.311c0,0.594-0.215,1.047-0.645,1.359
			c-0.238,0.156-0.52,0.236-0.844,0.236h-2.904l-0.014-0.014v-0.34l0.014-0.01h2.857c0.579,0,0.946-0.258,1.104-0.773
			c0.043-0.148,0.064-0.32,0.064-0.516v-0.199c0-0.596-0.21-0.994-0.631-1.191c-0.139-0.062-0.317-0.094-0.533-0.094h-2.862
			l-0.014-0.014v-0.338l0.014-0.014h4.319l0.014,0.014v0.338l-0.014,0.014h-0.497C73.172,112.619,73.362,113.029,73.362,113.533z"/>
		<linearGradient id="SVGID_10_" gradientUnits="userSpaceOnUse" x1="72.3325" y1="159.9355" x2="72.3325" y2="64.6255">
			<stop  offset="0" style="stop-color:#000000"/>
			<stop  offset="1" style="stop-color:#720F0F"/>
		</linearGradient>
		<path style="fill:url(#SVGID_10_);" d="M73.358,118.914v0.023c0,0.551-0.226,1.035-0.678,1.457
			c-0.451,0.377-0.961,0.564-1.53,0.564l-0.01-0.008v-3.693c-0.544,0-1.014,0.205-1.41,0.613c-0.278,0.32-0.417,0.674-0.417,1.057
			c0,0.51,0.231,0.945,0.695,1.305c0.146,0.098,0.286,0.176,0.422,0.23l0.033,0.006c-0.071,0.225-0.113,0.338-0.125,0.338
			c-0.176-0.064-0.35-0.152-0.52-0.264c-0.575-0.438-0.863-0.979-0.863-1.629c0-0.605,0.272-1.129,0.816-1.568
			c0.417-0.297,0.877-0.445,1.378-0.445h0.014c0.609,0,1.14,0.211,1.591,0.631C73.157,117.938,73.358,118.398,73.358,118.914z
			 M71.498,117.285v3.281c0.111-0.008,0.3-0.068,0.566-0.186c0.424-0.23,0.707-0.545,0.849-0.947
			c0.059-0.16,0.088-0.332,0.088-0.516c0-0.484-0.216-0.904-0.649-1.262C72.128,117.479,71.844,117.354,71.498,117.285z"/>
		<linearGradient id="SVGID_11_" gradientUnits="userSpaceOnUse" x1="72.3325" y1="159.9355" x2="72.3325" y2="64.6255">
			<stop  offset="0" style="stop-color:#000000"/>
			<stop  offset="1" style="stop-color:#720F0F"/>
		</linearGradient>
		<path style="fill:url(#SVGID_11_);" d="M73.362,124.107v0.311c0,0.594-0.215,1.047-0.645,1.359
			c-0.238,0.156-0.52,0.236-0.844,0.236h-2.904L68.956,126v-0.34l0.014-0.01h2.857c0.579,0,0.946-0.258,1.104-0.773
			c0.043-0.148,0.064-0.32,0.064-0.516v-0.199c0-0.596-0.21-0.994-0.631-1.191c-0.139-0.062-0.317-0.094-0.533-0.094h-2.862
			l-0.014-0.014v-0.338l0.014-0.014h4.319l0.014,0.014v0.338l-0.014,0.014h-0.497C73.172,123.193,73.362,123.604,73.362,124.107z"/>
		<linearGradient id="SVGID_12_" gradientUnits="userSpaceOnUse" x1="72.3325" y1="159.9355" x2="72.3325" y2="64.6255">
			<stop  offset="0" style="stop-color:#000000"/>
			<stop  offset="1" style="stop-color:#720F0F"/>
		</linearGradient>
		<path style="fill:url(#SVGID_12_);" d="M73.362,129.471v0.311c0,0.598-0.216,1.053-0.649,1.365l-0.079,0.041v0.014
			c0.278,0.139,0.488,0.402,0.631,0.789c0.064,0.197,0.097,0.404,0.097,0.621v0.307c0,0.574-0.201,1.018-0.603,1.33
			c-0.241,0.18-0.54,0.27-0.896,0.27h-2.895l-0.014-0.014v-0.338l0.014-0.014h2.839c0.538,0,0.897-0.211,1.076-0.631
			c0.074-0.193,0.111-0.41,0.111-0.654v-0.205c0-0.605-0.218-1.006-0.654-1.201c-0.142-0.055-0.308-0.084-0.497-0.084h-2.876
			l-0.014-0.014v-0.338l0.014-0.01h2.857c0.579,0,0.946-0.258,1.104-0.775c0.043-0.148,0.064-0.318,0.064-0.514v-0.199
			c0-0.598-0.21-0.994-0.631-1.193c-0.139-0.061-0.317-0.092-0.533-0.092h-2.862l-0.014-0.014v-0.34l0.014-0.014h4.319l0.014,0.014
			v0.34l-0.014,0.014h-0.497C73.172,128.557,73.362,128.967,73.362,129.471z"/>
		<linearGradient id="SVGID_13_" gradientUnits="userSpaceOnUse" x1="72.3325" y1="159.9355" x2="72.3325" y2="64.6255">
			<stop  offset="0" style="stop-color:#000000"/>
			<stop  offset="1" style="stop-color:#720F0F"/>
		</linearGradient>
		<path style="fill:url(#SVGID_13_);" d="M73.362,138.113v0.023c0,0.623-0.283,1.152-0.849,1.592l-0.097,0.061v0.004h0.891
			l0.014,0.014v0.334l-0.014,0.01h-4.295l-0.014-0.01v-0.334l0.014-0.014h0.891v-0.004c-0.393-0.242-0.676-0.598-0.849-1.066
			c-0.065-0.195-0.098-0.398-0.098-0.609c0-0.609,0.272-1.133,0.816-1.572c0.417-0.297,0.877-0.445,1.378-0.445h0.019
			c0.606,0,1.136,0.211,1.591,0.631C73.161,137.135,73.362,137.598,73.362,138.113z M71.164,136.453
			c-0.606,0-1.11,0.234-1.512,0.705c-0.226,0.303-0.338,0.625-0.338,0.965c0,0.465,0.194,0.869,0.584,1.215
			c0.365,0.305,0.787,0.455,1.267,0.455s0.906-0.158,1.28-0.473c0.374-0.344,0.562-0.744,0.562-1.201
			c0-0.52-0.245-0.963-0.733-1.332C71.923,136.564,71.553,136.453,71.164,136.453z"/>
		<linearGradient id="SVGID_14_" gradientUnits="userSpaceOnUse" x1="72.3325" y1="159.9355" x2="72.3325" y2="64.6255">
			<stop  offset="0" style="stop-color:#000000"/>
			<stop  offset="1" style="stop-color:#720F0F"/>
		</linearGradient>
		<path style="fill:url(#SVGID_14_);" d="M73.362,143.748v0.023c0,0.574-0.246,1.076-0.738,1.506l-0.223,0.154
			c-0.124-0.186-0.186-0.287-0.186-0.303c0.526-0.363,0.789-0.824,0.789-1.377c0-0.52-0.245-0.963-0.733-1.332
			c-0.349-0.223-0.719-0.334-1.108-0.334c-0.606,0-1.11,0.236-1.512,0.705c-0.226,0.305-0.338,0.625-0.338,0.965
			c0,0.539,0.256,0.992,0.77,1.359c0.019,0.014,0.033,0.021,0.042,0.029c-0.114,0.188-0.179,0.287-0.195,0.297
			c-0.415-0.252-0.709-0.617-0.886-1.1c-0.059-0.199-0.088-0.396-0.088-0.594c0-0.549,0.224-1.031,0.673-1.453
			c0.442-0.377,0.949-0.564,1.521-0.564h0.019c0.606,0,1.136,0.209,1.591,0.631C73.161,142.77,73.362,143.23,73.362,143.748z"/>
		<linearGradient id="SVGID_15_" gradientUnits="userSpaceOnUse" x1="72.3325" y1="159.9355" x2="72.3325" y2="64.6255">
			<stop  offset="0" style="stop-color:#000000"/>
			<stop  offset="1" style="stop-color:#720F0F"/>
		</linearGradient>
		<path style="fill:url(#SVGID_15_);" d="M75.747,146.936v0.34l-0.014,0.014h-2.941c0.384,0.314,0.575,0.734,0.575,1.256v0.26
			c0,0.684-0.26,1.172-0.779,1.467c-0.213,0.105-0.45,0.158-0.709,0.158h-2.909l-0.014-0.014v-0.34l0.014-0.014h2.857
			c0.542,0,0.898-0.223,1.072-0.668c0.068-0.174,0.102-0.387,0.102-0.641v-0.162c0-0.605-0.209-1.008-0.626-1.205
			c-0.148-0.066-0.328-0.098-0.538-0.098h-2.867l-0.014-0.014v-0.34l0.014-0.014h6.764L75.747,146.936z"/>
		<linearGradient id="SVGID_16_" gradientUnits="userSpaceOnUse" x1="72.3325" y1="159.9355" x2="72.3325" y2="64.6255">
			<stop  offset="0" style="stop-color:#000000"/>
			<stop  offset="1" style="stop-color:#720F0F"/>
		</linearGradient>
		<path style="fill:url(#SVGID_16_);" d="M73.358,153.904v0.023c0,0.551-0.226,1.035-0.678,1.457
			c-0.451,0.377-0.961,0.564-1.53,0.564l-0.01-0.008v-3.693c-0.544,0-1.014,0.205-1.41,0.613c-0.278,0.32-0.417,0.674-0.417,1.057
			c0,0.51,0.231,0.945,0.695,1.305c0.146,0.098,0.286,0.176,0.422,0.23l0.033,0.006c-0.071,0.225-0.113,0.338-0.125,0.338
			c-0.176-0.064-0.35-0.152-0.52-0.264c-0.575-0.438-0.863-0.979-0.863-1.629c0-0.605,0.272-1.129,0.816-1.568
			c0.417-0.297,0.877-0.445,1.378-0.445h0.014c0.609,0,1.14,0.211,1.591,0.631C73.157,152.928,73.358,153.389,73.358,153.904z
			 M71.498,152.275v3.281c0.111-0.008,0.3-0.068,0.566-0.186c0.424-0.23,0.707-0.545,0.849-0.947
			c0.059-0.16,0.088-0.332,0.088-0.516c0-0.484-0.216-0.904-0.649-1.262C72.128,152.469,71.844,152.344,71.498,152.275z"/>
		<linearGradient id="SVGID_17_" gradientUnits="userSpaceOnUse" x1="72.3325" y1="159.9355" x2="72.3325" y2="64.6255">
			<stop  offset="0" style="stop-color:#000000"/>
			<stop  offset="1" style="stop-color:#720F0F"/>
		</linearGradient>
		<path style="fill:url(#SVGID_17_);" d="M73.395,159.186c0,0.293-0.068,0.543-0.204,0.75c-0.282-0.051-0.422-0.082-0.422-0.092
			c0.146-0.244,0.218-0.477,0.218-0.695v-0.037c0-0.281-0.088-0.553-0.265-0.812c-0.133-0.148-0.241-0.238-0.325-0.27
			c-0.204-0.107-0.41-0.162-0.617-0.162h-2.812l-0.014-0.014v-0.338l0.014-0.014h4.323l0.01,0.014v0.338l-0.01,0.014h-0.491v0.006
			c0.015,0,0.083,0.066,0.204,0.203C73.265,158.393,73.395,158.762,73.395,159.186z"/>
	</g>
</g>
</svg>
